<svg width="64" height="39" viewBox="0 0 64 39" fill="none" xmlns="http://www.w3.org/2000/svg">
<path d="M59.7643 4.96415C53.8543 -1.89865 44.2148 -1.32239 38.7822 5.82418L21.7815 25.4652C19.9017 27.6393 16.8527 27.6131 14.9955 25.4172L10.9653 20.7067C9.10054 18.5282 9.11182 15.0095 10.9841 12.8485C12.8601 10.6832 15.8903 10.6962 17.7513 12.8703L23.2252 19.2791L30.015 11.4428C29.5901 10.9495 24.7817 5.3134 24.541 5.034C19.0032 -1.45336 9.89005 -1.56687 4.23567 4.96415C-1.38862 11.4559 -1.41494 22.012 4.17552 28.543L8.18697 33.2317C8.20953 33.2623 8.23584 33.2885 8.26216 33.3191C12.6684 38.4312 19.2288 39.5226 24.5598 36.5889C25.996 35.7987 27.3419 34.7204 28.5299 33.3452C28.5299 33.3452 44.6396 14.7476 46.4969 12.604C48.3729 10.7006 51.2226 10.7748 53.0159 12.8441C54.8919 15.0095 54.8995 18.5282 53.0347 20.7023L49.0045 25.4129L48.9669 25.4565C47.1021 27.6131 44.087 27.6175 42.2185 25.4565L40.7748 23.8019L34.0264 31.6863L35.4701 33.3409C40.9327 39.7322 50.2188 39.8763 55.813 33.2274L59.8245 28.5387C65.4149 22.0077 65.3886 11.4515 59.7643 4.95978V4.96415Z" fill="#20B767"/>
</svg>
